<?xml version="1.0" encoding="UTF-8"?>
<!--
  V5 icon sprite — generated from packages/design-system/src/icons/*.svg
  by packages/design-system/scripts/build-icon-sprite.mjs.

  DO NOT edit this file directly. Add a source SVG to the directory above
  and re-run `npm run build:icons -w @sikao/design-system`.
-->
<svg xmlns="http://www.w3.org/2000/svg" style="display:none" aria-hidden="true">
  <symbol id="answer-sheet" viewBox="0 0 24 24" fill="none" stroke="currentColor" stroke-linecap="round" stroke-linejoin="round" stroke-width="1.8">
    <rect x="4" y="4" width="16" height="16" rx="2" />
      <path d="M12 4v16" />
      <path d="M4 12h16" />
  </symbol>
  <symbol id="bookmark" viewBox="0 0 24 24" fill="none" stroke="currentColor" stroke-linecap="round" stroke-linejoin="round" stroke-width="1.8">
    <path d="M6 3h12v18l-6-4-6 4z" />
  </symbol>
  <symbol id="burger" viewBox="0 0 24 24" fill="none" stroke="currentColor" stroke-linecap="round" stroke-linejoin="round" stroke-width="1.8">
    <path d="M4 7h16" />
      <path d="M4 12h16" />
      <path d="M4 17h16" />
  </symbol>
  <symbol id="cat-panduan" viewBox="0 0 24 24" fill="none" stroke="currentColor" stroke-linecap="round" stroke-linejoin="round" stroke-width="1.7">
    <path d="M12 3v18" />
      <path d="M12 5l-7 4 7 4" />
      <path d="M12 11l7 4-7 4" />
  </symbol>
  <symbol id="cat-shenlun" viewBox="0 0 24 24" fill="none" stroke="currentColor" stroke-linecap="round" stroke-linejoin="round" stroke-width="1.7">
    <path d="M5 4h11l3 3v13a1 1 0 0 1-1 1H5a1 1 0 0 1-1-1V5a1 1 0 0 1 1-1z" />
      <path d="M16 4v3h3" />
      <path d="M8 11h8" />
      <path d="M8 14h8" />
      <path d="M8 17h6" />
  </symbol>
  <symbol id="cat-shuliang" viewBox="0 0 24 24" fill="none" stroke="currentColor" stroke-linecap="round" stroke-linejoin="round" stroke-width="1.7">
    <path d="M5 7h6" />
      <path d="M8 4v6" />
      <path d="M14 5l4 4" />
      <path d="M18 5l-4 4" />
      <path d="M5 16h6" />
      <path d="M5 19h6" />
      <path d="M14 14h4" />
      <path d="M16 14v4" />
      <path d="M14 20h4" />
  </symbol>
  <symbol id="cat-yanyu" viewBox="0 0 24 24" fill="none" stroke="currentColor" stroke-linecap="round" stroke-linejoin="round" stroke-width="1.7">
    <path d="M5 5h14a1 1 0 0 1 1 1v10a1 1 0 0 1-1 1h-9l-4 4v-4H5a1 1 0 0 1-1-1V6a1 1 0 0 1 1-1z" />
      <path d="M8 9h8" />
      <path d="M8 12h5" />
  </symbol>
  <symbol id="cat-ziliao" viewBox="0 0 24 24" fill="none" stroke="currentColor" stroke-linecap="round" stroke-linejoin="round" stroke-width="1.7">
    <rect x="4" y="4" width="16" height="16" rx="1.5" />
      <path d="M8 16V11" />
      <path d="M12 16V8" />
      <path d="M16 16v-3" />
  </symbol>
  <symbol id="check-filled" viewBox="0 0 24 24" fill="currentColor">
    <path d="M12 2a10 10 0 1 0 0 20 10 10 0 0 0 0-20zm-1.2 14.4l-4.8-4.8 1.6-1.6 3.2 3.2 6.4-6.4 1.6 1.6z" />
  </symbol>
  <symbol id="check" viewBox="0 0 24 24" fill="none" stroke="currentColor" stroke-linecap="round" stroke-linejoin="round" stroke-width="1.8">
    <path d="M5 12l5 5 9-11" />
  </symbol>
  <symbol id="chevron-left" viewBox="0 0 24 24" fill="none" stroke="currentColor" stroke-linecap="round" stroke-linejoin="round" stroke-width="1.8">
    <path d="M15 6l-6 6 6 6" />
  </symbol>
  <symbol id="chevron-right" viewBox="0 0 24 24" fill="none" stroke="currentColor" stroke-linecap="round" stroke-linejoin="round" stroke-width="1.8">
    <path d="M9 6l6 6-6 6" />
  </symbol>
  <symbol id="close-filled" viewBox="0 0 24 24" fill="currentColor">
    <path d="M12 2a10 10 0 1 0 0 20 10 10 0 0 0 0-20zm4.2 14.6l-1.6 1.6L12 15.6l-2.6 2.6-1.6-1.6L10.4 14 7.8 11.4l1.6-1.6L12 12.4l2.6-2.6 1.6 1.6L13.6 14z" />
  </symbol>
  <symbol id="close" viewBox="0 0 24 24" fill="none" stroke="currentColor" stroke-linecap="round" stroke-linejoin="round" stroke-width="1.8">
    <path d="M6 6l12 12" />
      <path d="M18 6L6 18" />
  </symbol>
  <symbol id="exit" viewBox="0 0 24 24" fill="none" stroke="currentColor" stroke-linecap="round" stroke-linejoin="round" stroke-width="1.8">
    <path d="M9 21H5a2 2 0 0 1-2-2V5a2 2 0 0 1 2-2h4" />
      <path d="M16 17l5-5-5-5" />
      <path d="M21 12H10" />
  </symbol>
  <symbol id="highlighter" viewBox="0 0 24 24" fill="none" stroke="currentColor" stroke-linecap="round" stroke-linejoin="round" stroke-width="1.8">
    <path d="M9 14l-3 3 1 4 4-1 3-3" />
      <path d="M11 12l5-9 5 5-9 5z" />
      <path d="M3 21h6" />
  </symbol>
  <symbol id="info-filled" viewBox="0 0 24 24" fill="currentColor">
    <path d="M12 2a10 10 0 1 0 0 20 10 10 0 0 0 0-20zm-1 5h2v2h-2zm0 4h2v6h-2z" />
  </symbol>
  <symbol id="info" viewBox="0 0 24 24" fill="none" stroke="currentColor" stroke-linecap="round" stroke-linejoin="round" stroke-width="1.8">
    <circle cx="12" cy="12" r="9" />
      <path d="M12 8v0.01" />
      <path d="M12 11v6" />
  </symbol>
  <symbol id="nav-home" viewBox="0 0 24 24" fill="none" stroke="currentColor" stroke-linecap="round" stroke-linejoin="round" stroke-width="1.7">
    <path d="M4 10l8-6 8 6v10a1 1 0 0 1-1 1h-4v-6h-6v6H5a1 1 0 0 1-1-1z" />
  </symbol>
  <symbol id="nav-note" viewBox="0 0 24 24" fill="none" stroke="currentColor" stroke-linecap="round" stroke-linejoin="round" stroke-width="1.7">
    <path d="M5 4h10l4 4v12a1 1 0 0 1-1 1H5a1 1 0 0 1-1-1V5a1 1 0 0 1 1-1z" />
      <path d="M14 4v4h4" />
      <path d="M8 12h6" />
      <path d="M8 15h6" />
      <path d="M8 18h4" />
  </symbol>
  <symbol id="nav-practice" viewBox="0 0 24 24" fill="none" stroke="currentColor" stroke-linecap="round" stroke-linejoin="round" stroke-width="1.7">
    <rect x="4" y="4" width="16" height="16" rx="2" />
      <path d="M4 10h16" />
      <path d="M10 4v16" />
  </symbol>
  <symbol id="nav-question" viewBox="0 0 24 24" fill="none" stroke="currentColor" stroke-linecap="round" stroke-linejoin="round" stroke-width="1.7">
    <circle cx="12" cy="12" r="9" />
      <path d="M9 9.5a3 3 0 1 1 4.5 2.6c-1 .5-1.5 1-1.5 2" />
      <path d="M12 17v0.01" />
  </symbol>
  <symbol id="nav-review" viewBox="0 0 24 24" fill="none" stroke="currentColor" stroke-linecap="round" stroke-linejoin="round" stroke-width="1.7">
    <path d="M4 12a8 8 0 0 1 14-5.3" />
      <path d="M20 12a8 8 0 0 1-14 5.3" />
      <path d="M18 3v4h-4" />
      <path d="M6 21v-4h4" />
  </symbol>
  <symbol id="notebook" viewBox="0 0 24 24" fill="none" stroke="currentColor" stroke-linecap="round" stroke-linejoin="round" stroke-width="1.8">
    <path d="M5 4h12a2 2 0 0 1 2 2v14a1 1 0 0 1-1 1H6a1 1 0 0 1-1-1z" />
      <path d="M9 4v17" />
      <path d="M12 9h4" />
      <path d="M12 12h4" />
      <path d="M12 15h4" />
  </symbol>
  <symbol id="pause" viewBox="0 0 24 24" fill="none" stroke="currentColor" stroke-linecap="round" stroke-linejoin="round" stroke-width="1.8">
    <path d="M9 5v14" />
      <path d="M15 5v14" />
  </symbol>
  <symbol id="play" viewBox="0 0 24 24" fill="none" stroke="currentColor" stroke-linecap="round" stroke-linejoin="round" stroke-width="1.8">
    <path d="M7 4l13 8-13 8z" />
  </symbol>
  <symbol id="rail-toggle" viewBox="0 0 24 24" fill="none" stroke="currentColor" stroke-linecap="round" stroke-linejoin="round" stroke-width="1.8">
    <rect x="3" y="4" width="18" height="16" rx="2" />
      <path d="M9 4v16" />
      <path d="M16 9l-3 3 3 3" />
  </symbol>
  <symbol id="scratch-pad" viewBox="0 0 24 24" fill="none" stroke="currentColor" stroke-linecap="round" stroke-linejoin="round" stroke-width="1.8">
    <rect x="4" y="4" width="16" height="16" rx="2" />
      <path d="M4 9h16" />
      <path d="M4 14h16" />
      <path d="M9 4v16" />
      <path d="M14 4v16" />
  </symbol>
  <symbol id="search" viewBox="0 0 24 24" fill="none" stroke="currentColor" stroke-linecap="round" stroke-linejoin="round" stroke-width="1.8">
    <circle cx="11" cy="11" r="7" />
      <path d="M20 20l-4-4" />
  </symbol>
  <symbol id="settings" viewBox="0 0 24 24" fill="none" stroke="currentColor" stroke-linecap="round" stroke-linejoin="round" stroke-width="1.8">
    <circle cx="12" cy="12" r="3" />
      <path d="M19.4 15a1.65 1.65 0 0 0 .33 1.82l.06.06a2 2 0 1 1-2.83 2.83l-.06-.06a1.65 1.65 0 0 0-1.82-.33 1.65 1.65 0 0 0-1 1.51V21a2 2 0 1 1-4 0v-.09a1.65 1.65 0 0 0-1-1.51 1.65 1.65 0 0 0-1.82.33l-.06.06a2 2 0 1 1-2.83-2.83l.06-.06a1.65 1.65 0 0 0 .33-1.82 1.65 1.65 0 0 0-1.51-1H3a2 2 0 1 1 0-4h.09a1.65 1.65 0 0 0 1.51-1 1.65 1.65 0 0 0-.33-1.82l-.06-.06a2 2 0 1 1 2.83-2.83l.06.06a1.65 1.65 0 0 0 1.82.33h.09a1.65 1.65 0 0 0 1-1.51V3a2 2 0 1 1 4 0v.09c0 .67.39 1.27 1 1.51a1.65 1.65 0 0 0 1.82-.33l.06-.06a2 2 0 1 1 2.83 2.83l-.06.06a1.65 1.65 0 0 0-.33 1.82 1.65 1.65 0 0 0 1.51 1H21a2 2 0 1 1 0 4h-.09a1.65 1.65 0 0 0-1.51 1z" />
  </symbol>
  <symbol id="submit" viewBox="0 0 24 24" fill="none" stroke="currentColor" stroke-linecap="round" stroke-linejoin="round" stroke-width="1.8">
    <path d="M21 3L3 11l7 3 3 7z" />
      <path d="M21 3l-11 11" />
  </symbol>
  <symbol id="timer" viewBox="0 0 24 24" fill="none" stroke="currentColor" stroke-linecap="round" stroke-linejoin="round" stroke-width="1.8">
    <circle cx="12" cy="13" r="8" />
      <path d="M12 13V8" />
      <path d="M12 13l3 2" />
      <path d="M9 3h6" />
      <path d="M12 3v3" />
  </symbol>
  <symbol id="trash" viewBox="0 0 24 24" fill="none" stroke="currentColor" stroke-linecap="round" stroke-linejoin="round" stroke-width="1.8">
    <path d="M4 6h16" />
      <path d="M9 6V4h6v2" />
      <path d="M6 6l1 14a2 2 0 0 0 2 2h6a2 2 0 0 0 2-2l1-14" />
      <path d="M10 11v6" />
      <path d="M14 11v6" />
  </symbol>
  <symbol id="type" viewBox="0 0 24 24" fill="none" stroke="currentColor" stroke-linecap="round" stroke-linejoin="round" stroke-width="1.8">
    <path d="M5 8l4-4 4 4" />
      <path d="M9 4v16" />
      <path d="M15 16l4 4 4-4" />
      <path d="M19 20V4" />
  </symbol>
  <symbol id="warning-filled" viewBox="0 0 24 24" fill="currentColor">
    <path d="M12 3L2 21h20zm-1 6h2v6h-2zm0 8h2v2h-2z" />
  </symbol>
  <symbol id="warning" viewBox="0 0 24 24" fill="none" stroke="currentColor" stroke-linecap="round" stroke-linejoin="round" stroke-width="1.8">
    <path d="M12 3L2 21h20z" />
      <path d="M12 10v5" />
      <path d="M12 18.01V18" />
  </symbol>
</svg>
