<?xml version="1.0" encoding="UTF-8"?>
<!--
  V5 icon sprite — generated from packages/design-system/src/icons/*.svg
  by packages/design-system/scripts/build-icon-sprite.mjs.

  DO NOT edit this file directly. Add a source SVG to the directory above
  and re-run `npm run build:icons -w @sikao/design-system`.
-->
<svg xmlns="http://www.w3.org/2000/svg" style="display:none" aria-hidden="true">
  <symbol id="answer-sheet" viewBox="0 0 24 24" fill="none" stroke="currentColor" stroke-linecap="round" stroke-linejoin="round" stroke-width="1.8">
    <rect x="4" y="4" width="16" height="16" rx="2" />
      <path d="M12 4v16" />
      <path d="M4 12h16" />
  </symbol>
  <symbol id="bookmark" viewBox="0 0 24 24" fill="none" stroke="currentColor" stroke-linecap="round" stroke-linejoin="round" stroke-width="1.8">
    <path d="M6 3h12v18l-6-4-6 4z" />
  </symbol>
  <symbol id="burger" viewBox="0 0 24 24" fill="none" stroke="currentColor" stroke-linecap="round" stroke-linejoin="round" stroke-width="1.8">
    <path d="M4 7h16" />
      <path d="M4 12h16" />
      <path d="M4 17h16" />
  </symbol>
  <symbol id="chevron-left" viewBox="0 0 24 24" fill="none" stroke="currentColor" stroke-linecap="round" stroke-linejoin="round" stroke-width="1.8">
    <path d="M15 6l-6 6 6 6" />
  </symbol>
  <symbol id="chevron-right" viewBox="0 0 24 24" fill="none" stroke="currentColor" stroke-linecap="round" stroke-linejoin="round" stroke-width="1.8">
    <path d="M9 6l6 6-6 6" />
  </symbol>
  <symbol id="exit" viewBox="0 0 24 24" fill="none" stroke="currentColor" stroke-linecap="round" stroke-linejoin="round" stroke-width="1.8">
    <path d="M9 21H5a2 2 0 0 1-2-2V5a2 2 0 0 1 2-2h4" />
      <path d="M16 17l5-5-5-5" />
      <path d="M21 12H10" />
  </symbol>
  <symbol id="highlighter" viewBox="0 0 24 24" fill="none" stroke="currentColor" stroke-linecap="round" stroke-linejoin="round" stroke-width="1.8">
    <path d="M9 14l-3 3 1 4 4-1 3-3" />
      <path d="M11 12l5-9 5 5-9 5z" />
      <path d="M3 21h6" />
  </symbol>
  <symbol id="notebook" viewBox="0 0 24 24" fill="none" stroke="currentColor" stroke-linecap="round" stroke-linejoin="round" stroke-width="1.8">
    <path d="M5 4h12a2 2 0 0 1 2 2v14a1 1 0 0 1-1 1H6a1 1 0 0 1-1-1z" />
      <path d="M9 4v17" />
      <path d="M12 9h4" />
      <path d="M12 12h4" />
      <path d="M12 15h4" />
  </symbol>
  <symbol id="pause" viewBox="0 0 24 24" fill="none" stroke="currentColor" stroke-linecap="round" stroke-linejoin="round" stroke-width="1.8">
    <path d="M9 5v14" />
      <path d="M15 5v14" />
  </symbol>
  <symbol id="play" viewBox="0 0 24 24" fill="none" stroke="currentColor" stroke-linecap="round" stroke-linejoin="round" stroke-width="1.8">
    <path d="M7 4l13 8-13 8z" />
  </symbol>
  <symbol id="rail-toggle" viewBox="0 0 24 24" fill="none" stroke="currentColor" stroke-linecap="round" stroke-linejoin="round" stroke-width="1.8">
    <rect x="3" y="4" width="18" height="16" rx="2" />
      <path d="M9 4v16" />
      <path d="M16 9l-3 3 3 3" />
  </symbol>
  <symbol id="scratch-pad" viewBox="0 0 24 24" fill="none" stroke="currentColor" stroke-linecap="round" stroke-linejoin="round" stroke-width="1.8">
    <rect x="4" y="4" width="16" height="16" rx="2" />
      <path d="M4 9h16" />
      <path d="M4 14h16" />
      <path d="M9 4v16" />
      <path d="M14 4v16" />
  </symbol>
  <symbol id="search" viewBox="0 0 24 24" fill="none" stroke="currentColor" stroke-linecap="round" stroke-linejoin="round" stroke-width="1.8">
    <circle cx="11" cy="11" r="7" />
      <path d="M20 20l-4-4" />
  </symbol>
  <symbol id="settings" viewBox="0 0 24 24" fill="none" stroke="currentColor" stroke-linecap="round" stroke-linejoin="round" stroke-width="1.8">
    <circle cx="12" cy="12" r="3" />
      <path d="M19.4 15a1.65 1.65 0 0 0 .33 1.82l.06.06a2 2 0 1 1-2.83 2.83l-.06-.06a1.65 1.65 0 0 0-1.82-.33 1.65 1.65 0 0 0-1 1.51V21a2 2 0 1 1-4 0v-.09a1.65 1.65 0 0 0-1-1.51 1.65 1.65 0 0 0-1.82.33l-.06.06a2 2 0 1 1-2.83-2.83l.06-.06a1.65 1.65 0 0 0 .33-1.82 1.65 1.65 0 0 0-1.51-1H3a2 2 0 1 1 0-4h.09a1.65 1.65 0 0 0 1.51-1 1.65 1.65 0 0 0-.33-1.82l-.06-.06a2 2 0 1 1 2.83-2.83l.06.06a1.65 1.65 0 0 0 1.82.33h.09a1.65 1.65 0 0 0 1-1.51V3a2 2 0 1 1 4 0v.09c0 .67.39 1.27 1 1.51a1.65 1.65 0 0 0 1.82-.33l.06-.06a2 2 0 1 1 2.83 2.83l-.06.06a1.65 1.65 0 0 0-.33 1.82 1.65 1.65 0 0 0 1.51 1H21a2 2 0 1 1 0 4h-.09a1.65 1.65 0 0 0-1.51 1z" />
  </symbol>
  <symbol id="submit" viewBox="0 0 24 24" fill="none" stroke="currentColor" stroke-linecap="round" stroke-linejoin="round" stroke-width="1.8">
    <path d="M21 3L3 11l7 3 3 7z" />
      <path d="M21 3l-11 11" />
  </symbol>
  <symbol id="timer" viewBox="0 0 24 24" fill="none" stroke="currentColor" stroke-linecap="round" stroke-linejoin="round" stroke-width="1.8">
    <circle cx="12" cy="13" r="8" />
      <path d="M12 13V8" />
      <path d="M12 13l3 2" />
      <path d="M9 3h6" />
      <path d="M12 3v3" />
  </symbol>
  <symbol id="trash" viewBox="0 0 24 24" fill="none" stroke="currentColor" stroke-linecap="round" stroke-linejoin="round" stroke-width="1.8">
    <path d="M4 6h16" />
      <path d="M9 6V4h6v2" />
      <path d="M6 6l1 14a2 2 0 0 0 2 2h6a2 2 0 0 0 2-2l1-14" />
      <path d="M10 11v6" />
      <path d="M14 11v6" />
  </symbol>
  <symbol id="type" viewBox="0 0 24 24" fill="none" stroke="currentColor" stroke-linecap="round" stroke-linejoin="round" stroke-width="1.8">
    <path d="M5 8l4-4 4 4" />
      <path d="M9 4v16" />
      <path d="M15 16l4 4 4-4" />
      <path d="M19 20V4" />
  </symbol>
</svg>
