<svg xmlns="http://www.w3.org/2000/svg" viewBox="0 0 320 240" fill="none" stroke="#0b1120" stroke-width="1.5" stroke-linecap="round" stroke-linejoin="round">
  <!-- Empty papers — line-art folder + curled blank sheets -->
  <rect x="74" y="92" width="172" height="108" rx="6" fill="#f8fafc"/>
  <path d="M74 108h60l14-16h98a6 6 0 0 1 6 6v94a6 6 0 0 1-6 6H80a6 6 0 0 1-6-6z"/>
  <rect x="108" y="64" width="104" height="86" rx="4" fill="#ffffff"/>
  <path d="M126 86h68M126 102h68M126 118h44"/>
  <path d="M196 70l10-10M206 60l4 4M212 64h6" stroke="#3f7ef1" stroke-width="1.5"/>
  <circle cx="160" cy="200" r="2" fill="#0b1120" stroke="none"/>
  <circle cx="172" cy="200" r="2" fill="#0b1120" stroke="none"/>
  <circle cx="184" cy="200" r="2" fill="#0b1120" stroke="none"/>
</svg>
