<svg xmlns="http://www.w3.org/2000/svg" viewBox="0 0 320 240" fill="none" stroke="#0b1120" stroke-width="1.5" stroke-linecap="round" stroke-linejoin="round">
  <!-- Empty/error — disconnected plug, signal lost -->
  <g transform="translate(60 92)">
    <rect x="0" y="0" width="80" height="56" rx="8" fill="#f8fafc"/>
    <path d="M80 18h14M80 38h14"/>
    <circle cx="22" cy="20" r="3" fill="#0b1120" stroke="none"/>
    <circle cx="22" cy="36" r="3" fill="#0b1120" stroke="none"/>
    <path d="M40 20h22M40 36h22"/>
  </g>
  <g transform="translate(180 92)">
    <rect x="0" y="0" width="80" height="56" rx="8" fill="#ffffff"/>
    <path d="M0 18h-14M0 38h-14"/>
    <path d="M20 28h44"/>
  </g>
  <g stroke="#3f7ef1" stroke-width="2" stroke-linecap="round">
    <path d="M154 110l12 10M166 110l-12 10"/>
    <path d="M160 96v-12M148 102l-8-8M172 102l8-8"/>
  </g>
  <path d="M88 178h144" stroke="#cbd5e1" stroke-dasharray="4 6"/>
</svg>
