<svg xmlns="http://www.w3.org/2000/svg" viewBox="0 0 480 320" fill="none" stroke="#0b1120" stroke-width="1.5" stroke-linecap="round" stroke-linejoin="round">
  <!-- 404 — lost in the map: compass + folded map + signpost -->
  <g transform="translate(40 80)">
    <path d="M0 24l60-16 60 16 60-16v140l-60 16-60-16-60 16z" fill="#f8fafc"/>
    <path d="M60 8v140M120 24v140"/>
    <path d="M16 60c12-8 24-8 36 0M76 92c12-8 24-8 36 0M136 56c12-8 24-8 36 0" stroke="#cbd5e1"/>
  </g>
  <g transform="translate(280 100)">
    <circle cx="60" cy="60" r="58" fill="#ffffff"/>
    <circle cx="60" cy="60" r="50"/>
    <path d="M60 18v8M60 94v8M18 60h8M94 60h8" stroke-width="2"/>
    <path d="M60 28l10 32-10 32-10-32z" fill="#0b1120"/>
    <path d="M60 28l10 32-10 32" fill="#3f7ef1" stroke="#3f7ef1"/>
    <circle cx="60" cy="60" r="3" fill="#ffffff" stroke="none"/>
  </g>
  <g font-family="'Source Serif 4', 'Songti SC', 'Noto Serif SC', Georgia, serif">
    <text x="160" y="280" font-size="44" font-style="italic" font-weight="600" fill="#0b1120" stroke="none">404</text>
    <text x="220" y="280" font-size="18" fill="#64748b" stroke="none">迷路了</text>
  </g>
  <path d="M60 280h360" stroke="#cbd5e1" stroke-dasharray="4 6"/>
</svg>
